<?xml version="1.0" standalone="no"?>
<!DOCTYPE svg PUBLIC "-//W3C//DTD SVG 20010904//EN"
 "http://www.w3.org/TR/2001/REC-SVG-20010904/DTD/svg10.dtd">
<svg version="1.0" xmlns="http://www.w3.org/2000/svg"
 width="4096.000000pt" height="4096.000000pt" viewBox="0 0 4096.000000 4096.000000"
 preserveAspectRatio="xMidYMid meet">

<g transform="translate(0.000000,4096.000000) scale(0.100000,-0.100000)"
fill="#000000" stroke="none">
<path d="M21339 33882 c-58 -31 -177 -109 -265 -172 -198 -144 -753 -569 -814
-624 -25 -23 -197 -180 -382 -349 l-337 -308 -394 -472 -394 -472 -130 -220
c-314 -531 -563 -954 -591 -1005 -17 -30 -168 -413 -335 -850 l-304 -795 -77
-335 c-43 -184 -80 -345 -83 -358 -4 -16 -11 -22 -23 -19 -10 2 -159 88 -331
190 l-314 185 -585 247 c-322 136 -679 287 -795 337 -232 99 -133 72 -1250
343 l-431 104 -634 51 c-471 38 -661 50 -735 45 -55 -3 -282 -14 -505 -25
-358 -18 -450 -26 -790 -71 -569 -74 -844 -121 -979 -166 l-113 -38 -24 -60
-25 -60 31 -100 c46 -149 294 -793 595 -1550 202 -508 295 -729 345 -821 l39
-71 -197 -6 c-231 -8 -594 -34 -1422 -102 -632 -53 -870 -75 -1027 -97 l-162
-22 -48 -48 -47 -47 13 -118 c14 -137 63 -314 253 -903 108 -337 140 -421 315
-835 108 -253 206 -480 218 -505 13 -25 162 -277 332 -561 l308 -517 480 -567
c264 -312 482 -571 485 -574 3 -4 255 -218 560 -476 305 -258 607 -513 670
-567 87 -74 212 -160 518 -354 222 -141 401 -261 399 -267 -2 -7 -165 -149
-362 -316 l-358 -305 -604 -670 -603 -671 -164 -255 c-551 -857 -660 -1028
-674 -1055 -8 -16 -129 -291 -269 -610 l-254 -580 -148 -515 c-136 -468 -156
-549 -225 -895 -117 -590 -166 -891 -166 -1022 l0 -111 53 -40 c51 -40 53 -40
152 -45 106 -4 635 24 1380 73 781 52 1207 88 1333 114 35 7 62 9 62 3 0 -5
-16 -55 -34 -110 -53 -156 -128 -441 -340 -1287 -242 -965 -282 -1132 -311
-1295 l-23 -130 23 -45 c39 -76 42 -78 160 -102 108 -23 121 -23 770 -22 l660
0 515 52 c543 55 515 51 965 157 77 19 295 70 485 115 391 92 254 42 1315 483
l490 203 770 481 770 481 340 283 c187 155 423 351 525 436 101 84 187 153
190 153 3 0 139 -278 303 -618 l298 -617 502 -756 502 -756 208 -224 c115
-123 354 -380 530 -570 l322 -345 244 -190 c134 -104 370 -286 524 -406 l279
-216 467 -270 c404 -234 512 -292 811 -432 521 -245 788 -359 915 -391 61 -16
118 -29 128 -29 10 0 40 17 65 37 26 21 49 38 50 39 27 17 210 950 407 2064
78 444 115 685 115 758 0 28 2 52 5 52 2 0 44 -26 92 -58 156 -104 551 -322
1433 -794 670 -358 770 -410 901 -469 l114 -50 66 16 66 16 51 117 c61 137
126 378 267 977 77 329 102 456 140 715 25 173 59 405 75 515 30 197 30 210
41 835 6 349 9 662 6 695 -3 33 -54 390 -112 794 l-106 734 -271 856 -270 856
-189 402 c-104 221 -189 407 -189 413 0 5 3 10 6 10 3 0 200 25 438 56 l431
55 570 155 c314 86 698 190 855 233 l285 78 680 313 680 314 523 356 524 355
376 338 c318 285 418 381 636 615 395 423 572 628 644 746 l62 103 -22 63
c-23 62 -25 64 -125 132 -231 154 -1939 1124 -2220 1261 -68 32 -123 62 -123
66 0 4 13 14 28 23 89 53 562 492 1492 1385 313 301 430 422 455 470 8 15 15
51 15 80 l0 51 -87 82 c-103 96 -322 247 -798 550 -279 178 -413 255 -745 429
-223 117 -424 224 -447 237 -37 21 -406 161 -1026 389 l-228 84 -727 145
c-771 154 -731 148 -1107 161 -82 3 -346 13 -585 22 -705 26 -876 23 -1318
-23 -205 -22 -375 -36 -378 -32 -3 4 31 197 75 430 84 447 87 471 96 668 3 69
16 361 30 650 45 937 51 765 -49 1589 l-87 715 -75 260 c-42 144 -118 407
-170 586 -52 179 -105 350 -118 380 -343 783 -387 877 -576 1220 -26 47 -73
132 -105 190 -145 266 -305 527 -374 611 l-74 89 -68 0 -68 0 -98 -73 c-85
-64 -515 -429 -853 -723 -745 -650 -948 -831 -1029 -919 -27 -30 -52 -55 -54
-55 -3 0 -15 30 -28 68 -43 130 -396 894 -787 1702 -44 91 -114 236 -156 324
-42 87 -102 201 -132 253 -50 84 -61 97 -101 114 -75 32 -82 31 -194 -29z
m149 -863 c49 -20 56 -28 101 -108 147 -261 875 -1800 987 -2086 l37 -95 116
113 c244 236 1470 1302 1680 1460 90 68 108 78 134 73 16 -3 46 -6 66 -7 33 0
42 -7 105 -85 70 -85 84 -107 227 -356 266 -462 396 -716 586 -1148 167 -379
199 -459 247 -625 30 -104 98 -341 152 -525 53 -184 101 -351 105 -370 5 -19
29 -210 55 -425 25 -214 60 -516 79 -669 l33 -279 -39 -800 -39 -799 -76 -400
c-41 -220 -73 -403 -69 -406 3 -3 195 13 428 36 l422 42 255 -10 c140 -6 502
-19 803 -30 l548 -19 682 -136 682 -136 555 -206 c605 -224 502 -177 1180
-533 363 -191 1143 -699 1293 -841 l88 -84 -7 -69 -7 -69 -201 -202 c-423
-424 -1441 -1379 -1587 -1489 l-60 -45 53 -23 c128 -54 565 -296 1413 -781
536 -306 727 -420 797 -476 4 -4 18 -36 32 -72 l25 -66 -64 -101 c-71 -114
-233 -301 -598 -690 -194 -207 -312 -322 -593 -574 -338 -303 -361 -322 -608
-489 -141 -96 -360 -244 -487 -331 -256 -174 -125 -108 -1204 -605 -159 -73
-319 -142 -355 -153 -36 -10 -396 -109 -800 -218 l-735 -200 -405 -52 c-223
-29 -405 -53 -406 -53 -1 -1 78 -168 174 -372 l174 -370 168 -530 c92 -291
206 -654 254 -805 l86 -275 84 -590 c47 -324 92 -645 102 -711 15 -110 16
-178 7 -740 l-10 -619 -72 -480 c-64 -424 -82 -522 -157 -840 -129 -545 -195
-786 -252 -912 l-49 -108 -66 -18 -67 -18 -127 58 c-229 105 -1721 905 -2043
1096 -47 28 -106 65 -131 84 l-46 33 -7 -83 c-20 -234 -386 -2231 -453 -2471
-28 -98 -29 -101 -83 -143 l-55 -43 -130 35 c-142 37 -369 133 -885 375 -225
106 -378 188 -725 388 -481 279 -382 210 -1070 743 -110 85 -229 177 -264 205
-35 27 -289 289 -563 583 l-499 534 -466 701 -466 701 -250 515 c-137 283
-261 539 -274 568 -16 34 -30 51 -38 48 -7 -2 -227 -182 -488 -400 l-476 -395
-423 -264 c-1132 -705 -975 -615 -1286 -744 -152 -63 -455 -188 -672 -278
l-395 -164 -465 -110 c-256 -60 -521 -123 -590 -140 -99 -23 -230 -40 -637
-81 l-511 -51 -574 -1 c-560 -1 -576 0 -701 23 l-128 23 -34 64 -34 64 25 136
c60 322 527 2178 602 2390 19 53 25 82 17 82 -6 0 -36 -4 -66 -10 -202 -36
-2135 -170 -2457 -170 l-123 0 -54 43 -54 42 0 120 c-1 101 7 166 49 405 107
616 169 890 313 1390 l135 465 241 555 c180 412 257 578 301 645 32 50 196
306 365 570 169 264 320 499 336 522 31 47 1078 1217 1142 1277 23 21 183 158
355 304 172 146 309 269 305 273 -5 4 -170 110 -368 235 l-360 228 -344 290
c-190 160 -376 318 -416 351 -39 33 -166 141 -283 239 l-212 180 -453 534
c-258 304 -472 567 -499 610 -25 43 -162 270 -303 506 l-256 429 -155 366
c-86 201 -169 396 -185 434 -39 87 -229 669 -314 957 -52 174 -69 250 -78 337
l-11 113 48 49 47 48 112 17 c196 29 1090 106 2057 176 85 7 217 12 292 13 76
1 137 4 135 7 -1 3 -16 32 -33 65 -48 90 -157 352 -349 835 -357 896 -543
1390 -548 1450 0 9 9 41 22 72 l23 57 108 36 c129 43 364 83 905 155 350 46
418 52 850 73 l470 23 345 -28 c190 -15 456 -36 591 -47 l246 -21 474 -115
c261 -63 567 -138 681 -165 170 -41 237 -63 380 -124 249 -106 647 -275 992
-421 164 -69 308 -131 320 -137 12 -6 151 -87 309 -181 158 -93 290 -168 292
-165 3 2 39 152 80 332 l76 329 161 421 c88 231 216 567 284 745 86 227 140
352 177 415 30 50 186 316 348 591 l293 500 372 445 371 445 284 261 c156 143
311 285 344 315 73 67 520 413 777 601 172 126 368 242 393 233 6 -2 34 -13
63 -26z"/>
</g>
</svg>
