<?xml version="1.0" standalone="no"?>
<!DOCTYPE svg PUBLIC "-//W3C//DTD SVG 20010904//EN"
 "http://www.w3.org/TR/2001/REC-SVG-20010904/DTD/svg10.dtd">
<svg version="1.0" xmlns="http://www.w3.org/2000/svg"
 width="4096.000000pt" height="4096.000000pt" viewBox="0 0 4096.000000 4096.000000"
 preserveAspectRatio="xMidYMid meet">

<g transform="translate(0.000000,4096.000000) scale(0.100000,-0.100000)"
fill="#000000" stroke="none">
<path d="M21346 33889 c-114 -58 -324 -209 -762 -545 -259 -199 -366 -291
-675 -574 -401 -369 -335 -297 -921 -1000 l-238 -284 -372 -631 -372 -630
-307 -801 -307 -801 -83 -362 c-46 -198 -87 -361 -92 -361 -4 0 -151 85 -327
189 l-318 189 -805 340 -804 340 -524 127 c-288 70 -614 149 -724 176 l-200
49 -630 51 -630 51 -530 -26 c-513 -25 -543 -28 -935 -81 -605 -82 -805 -117
-935 -162 l-109 -38 -24 -60 -24 -59 27 -91 c34 -115 87 -256 300 -805 350
-900 548 -1386 631 -1552 24 -48 44 -89 44 -91 0 -2 -98 -7 -217 -10 -120 -4
-272 -11 -338 -16 -66 -6 -212 -17 -325 -26 -339 -26 -1008 -81 -1400 -115
-124 -11 -291 -30 -372 -41 l-147 -22 -49 -51 -50 -51 15 -120 c17 -138 95
-414 271 -955 94 -288 137 -401 309 -806 l200 -471 322 -540 322 -541 371
-438 c204 -242 425 -503 492 -581 116 -136 150 -166 790 -707 l670 -566 398
-252 c219 -139 397 -256 396 -260 -2 -5 -168 -149 -370 -321 l-367 -312 -595
-661 c-540 -601 -603 -675 -684 -800 -49 -77 -207 -323 -352 -549 -144 -225
-293 -457 -331 -515 -43 -68 -100 -178 -157 -310 -347 -791 -435 -997 -451
-1052 -11 -35 -78 -265 -149 -513 -117 -404 -138 -491 -211 -855 -124 -627
-161 -853 -161 -998 l0 -122 57 -45 58 -45 110 0 c262 0 2214 130 2555 170 47
6 109 15 138 21 30 6 56 9 58 6 3 -2 -4 -27 -15 -54 -46 -116 -143 -481 -361
-1352 -211 -844 -285 -1155 -309 -1297 l-20 -116 31 -62 c17 -33 31 -62 33
-64 1 -1 61 -14 134 -28 l132 -25 657 3 657 4 509 52 509 52 636 151 636 150
725 301 725 301 595 372 c327 204 674 421 770 480 137 86 226 152 410 305 662
551 801 665 813 668 8 2 62 -98 142 -265 264 -548 415 -860 448 -923 19 -36
257 -400 529 -810 l496 -745 163 -176 c90 -96 279 -299 420 -450 141 -150 307
-329 370 -396 101 -108 172 -167 629 -521 l515 -398 465 -270 c412 -239 507
-290 830 -441 571 -268 766 -351 914 -389 l129 -33 58 45 57 45 36 147 c37
150 89 418 215 1097 185 1001 248 1370 257 1510 8 123 7 122 52 87 107 -85
756 -444 1857 -1027 486 -257 621 -320 667 -311 107 21 101 16 157 142 61 137
126 373 265 965 81 343 103 456 146 749 28 190 62 419 76 510 25 158 26 194
36 845 l10 680 -111 760 -110 760 -271 856 c-294 932 -253 822 -500 1344 -113
241 -152 326 -149 329 2 2 202 29 444 60 l440 57 855 233 855 234 680 314 680
315 520 353 520 354 385 346 c320 288 427 392 631 611 240 259 349 378 479
529 36 41 73 84 83 95 10 11 46 65 79 119 l61 99 -23 67 -23 66 -116 76 c-123
81 -224 141 -731 430 -173 99 -360 206 -415 238 -491 283 -1076 601 -1155 629
l-35 13 29 21 c136 101 601 531 1326 1226 384 369 458 441 551 543 l89 98 0
66 0 67 -87 81 c-98 92 -283 219 -793 545 -308 197 -415 258 -805 463 l-450
237 -593 220 -593 220 -732 147 -732 147 -865 32 -865 32 -463 -45 c-254 -25
-464 -43 -466 -41 -3 2 33 204 79 449 l83 445 31 685 c18 377 36 759 41 850 7
126 5 191 -5 275 -8 61 -35 283 -60 495 -112 938 -90 811 -215 1242 -244 840
-212 748 -432 1248 -169 384 -228 505 -376 775 -275 502 -416 739 -499 838
l-74 87 -71 0 -71 0 -96 -72 c-214 -161 -1559 -1329 -1802 -1565 -69 -68 -129
-123 -132 -123 -3 0 -13 24 -23 53 -67 203 -922 2012 -1087 2301 -42 72 -50
81 -99 102 -29 13 -60 23 -68 23 -8 0 -60 -23 -114 -50z m142 -870 c49 -20 56
-28 101 -108 67 -118 145 -276 327 -659 388 -812 597 -1265 661 -1428 l37 -94
105 103 c127 123 219 206 541 488 942 824 1234 1067 1267 1055 8 -3 38 -6 66
-7 l52 0 70 -87 c142 -174 566 -944 746 -1352 67 -151 150 -340 186 -420 54
-121 91 -237 225 -695 l160 -550 83 -689 83 -690 -39 -799 -39 -799 -76 -400
c-41 -220 -73 -403 -69 -406 3 -3 195 13 428 36 l422 42 245 -10 c135 -6 497
-19 805 -30 l560 -20 680 -136 680 -135 225 -84 c969 -359 841 -305 1305 -548
440 -231 614 -336 1135 -682 191 -127 302 -208 363 -265 l87 -82 -6 -67 c-7
-65 -8 -68 -78 -145 -178 -199 -1558 -1501 -1717 -1620 l-60 -45 53 -23 c114
-48 568 -298 1268 -698 680 -388 866 -499 942 -559 4 -4 18 -36 32 -72 l25
-66 -64 -101 c-71 -114 -233 -301 -598 -690 -194 -207 -312 -322 -593 -574
-338 -303 -361 -322 -608 -489 -141 -96 -360 -244 -487 -331 -228 -155 -234
-158 -572 -314 -188 -86 -472 -218 -632 -291 -159 -74 -319 -143 -355 -153
-36 -10 -396 -108 -800 -218 l-735 -200 -405 -52 c-223 -29 -405 -53 -406 -53
-1 -1 78 -168 174 -372 l174 -370 168 -530 c92 -291 206 -654 254 -805 l86
-275 84 -590 c47 -324 92 -645 102 -711 15 -110 16 -178 7 -740 l-10 -619 -72
-480 c-64 -425 -82 -520 -157 -840 -129 -545 -196 -786 -252 -912 l-49 -108
-67 -18 -68 -18 -120 55 c-229 105 -1731 911 -2048 1099 -47 28 -106 65 -131
84 l-46 33 -7 -83 c-20 -233 -387 -2232 -453 -2471 -28 -98 -29 -101 -83 -142
l-55 -43 -117 29 c-76 19 -182 57 -305 110 -227 99 -856 392 -933 435 -30 17
-228 132 -440 255 -418 242 -334 184 -1015 711 -110 85 -229 177 -264 205 -36
27 -289 289 -563 583 l-499 534 -466 701 -466 701 -250 515 c-137 283 -261
539 -274 568 -16 34 -30 52 -38 48 -7 -2 -227 -183 -489 -400 l-475 -395 -423
-264 c-1132 -705 -975 -615 -1286 -744 -152 -63 -455 -188 -672 -279 l-395
-163 -465 -110 c-256 -61 -521 -123 -591 -140 -100 -24 -228 -40 -639 -81
l-514 -51 -570 -1 c-558 -1 -574 0 -699 23 l-128 23 -34 64 -34 64 25 135 c60
324 527 2179 602 2391 19 53 25 82 17 82 -6 0 -36 -4 -66 -10 -202 -36 -2135
-170 -2457 -170 l-123 0 -54 43 -54 42 0 120 c-1 101 7 166 49 405 107 616
169 890 313 1390 l135 465 242 555 c194 447 255 575 309 660 38 58 202 314
366 570 164 256 310 484 326 507 31 47 1078 1216 1142 1277 23 21 183 158 355
304 172 146 309 269 305 273 -5 4 -170 110 -368 235 l-360 228 -344 290 c-190
160 -376 318 -416 351 -39 33 -166 141 -283 239 l-212 179 -453 535 c-259 306
-472 566 -499 610 -25 42 -162 270 -302 506 l-256 429 -156 366 c-86 201 -170
397 -186 435 -39 89 -227 663 -313 956 -52 174 -69 250 -78 337 l-11 113 48
49 47 48 112 17 c196 29 1090 106 2057 176 85 7 217 12 292 13 76 1 137 4 135
7 -1 3 -16 32 -33 65 -48 90 -157 352 -349 835 -357 896 -543 1390 -548 1450
0 9 9 41 22 72 l23 57 108 36 c128 43 361 82 905 155 351 46 416 52 850 73
l470 22 405 -32 c846 -67 718 -48 1252 -178 260 -63 566 -138 680 -165 170
-41 237 -63 380 -124 264 -113 661 -281 992 -421 164 -69 308 -131 320 -137
12 -6 151 -87 309 -181 158 -93 290 -168 292 -165 2 2 39 152 80 333 l76 328
284 745 c224 586 296 765 338 836 30 50 186 316 348 591 l293 500 372 445 371
445 344 316 c352 322 600 523 1061 861 172 126 368 242 393 233 6 -2 34 -13
63 -26z"/>
</g>
</svg>
